<svg width="109" height="40" viewBox="0 0 109 40" fill="none" xmlns="http://www.w3.org/2000/svg">
<g clip-path="url(#clip0_82:49)">
<path d="M47.4746 9.389V21.6355H49.1499V17.6986L50.8053 16.312L56.5445 21.6355H59.0725L52.1598 15.1985L59.0725 9.389H56.5844L49.1499 15.6134V9.389H47.4746Z" fill="white"/>
<path d="M62.8221 12.5961C62.0926 12.5961 61.4705 12.8306 60.9561 13.2995C60.4416 13.7684 60.1841 14.3336 60.1836 14.9951V21.6245H61.7986V15.3403C61.7942 15.1666 61.8277 14.9941 61.8968 14.8349C61.9659 14.6757 62.0688 14.5338 62.1983 14.4192C62.4647 14.1761 62.7991 14.0547 63.2015 14.0549H66.8639V12.5961H62.8221Z" fill="white"/>
<path d="M68.2772 12.6075V19.2369C68.2772 19.8981 68.5364 20.4632 69.0548 20.9321C69.5731 21.401 70.2002 21.6354 70.9361 21.6354H75.7721V22.091C75.7742 22.2594 75.7433 22.4265 75.6813 22.5828C75.6193 22.7391 75.5273 22.8815 75.4106 23.0019C75.2957 23.1269 75.1558 23.2259 75.0002 23.2923C74.8445 23.3587 74.6766 23.3908 74.5077 23.3867H69.09V24.844H74.7286C75.464 24.844 76.0911 24.6096 76.6099 24.1407C77.1288 23.6718 77.3878 23.1066 77.3871 22.4451V12.6075H75.7721V20.1679C74.9691 20.1679 73.431 20.1713 71.1578 20.1781C70.7968 20.1781 70.4959 20.0517 70.2549 19.7988C70.1382 19.6794 70.0462 19.5378 69.9843 19.3823C69.9223 19.2267 69.8917 19.0603 69.8941 18.8927V12.6075H68.2772Z" fill="white"/>
<path d="M85.0295 20.1781C85.1984 20.1822 85.3663 20.1501 85.522 20.0838C85.6777 20.0175 85.8177 19.9186 85.9327 19.7936C86.168 19.5502 86.2979 19.2225 86.2939 18.8825V15.3403C86.2975 15.1682 86.2635 14.9974 86.1945 14.8399C86.1254 14.6824 86.0229 14.5422 85.8942 14.4291C85.6263 14.1865 85.2885 14.0651 84.8808 14.0648H80.414V20.1679L84.4674 20.1781H85.0295ZM78.799 24.844V12.5961H85.2504C85.9862 12.5961 86.6132 12.8306 87.1313 13.2995C87.6495 13.7684 87.9086 14.3336 87.9089 14.9951V19.2358C87.9089 19.897 87.6497 20.4621 87.1313 20.931C86.613 21.3999 85.986 21.6344 85.2504 21.6344H80.414V24.8429L78.799 24.844Z" fill="white"/>
<path d="M89.2205 10.8566C89.227 13.758 89.2303 16.5515 89.2303 19.2369C89.2303 19.8981 89.4895 20.4632 90.0078 20.9321C90.5262 21.401 91.15 21.6355 91.8794 21.6355H94.939V20.1781H92.1101C91.9412 20.1822 91.7733 20.1501 91.6177 20.0838C91.462 20.0175 91.3221 19.9186 91.2072 19.7937C91.0905 19.6733 90.9985 19.5308 90.9365 19.3744C90.8745 19.218 90.8438 19.0509 90.8461 18.8825V14.0648H94.939V12.5987H90.8359V10.858L89.2205 10.8566Z" fill="white"/>
<path d="M99.3811 14.0751C100.645 14.0616 101.829 14.0616 102.933 14.0751C103.34 14.0817 103.678 14.2048 103.946 14.4445C104.075 14.5563 104.178 14.6955 104.247 14.8521C104.316 15.0087 104.35 15.1788 104.346 15.3502V18.8927C104.349 19.0648 104.315 19.2356 104.246 19.393C104.177 19.5504 104.075 19.6906 103.946 19.8036C103.68 20.0464 103.342 20.1679 102.933 20.1679H99.3811C98.973 20.1679 98.6352 20.0464 98.3678 19.8036C98.239 19.6906 98.1364 19.5505 98.0673 19.3931C97.9983 19.2357 97.9644 19.0648 97.9681 18.8927V15.3502C97.9641 15.1788 97.9979 15.0087 98.067 14.8521C98.1361 14.6954 98.2389 14.5563 98.3678 14.4445C98.6352 14.2048 98.973 14.0817 99.3811 14.0751ZM98.9996 12.5972C98.2708 12.5972 97.6472 12.8317 97.1288 13.3006C96.6105 13.7695 96.3513 14.3347 96.3513 14.9962V19.2369C96.3513 19.8981 96.6105 20.4632 97.1288 20.9321C97.6472 21.401 98.2708 21.6355 98.9996 21.6355H103.314C104.043 21.6355 104.667 21.401 105.185 20.9321C105.704 20.4632 105.963 19.8981 105.963 19.2369V14.9962C105.963 14.3349 105.704 13.7698 105.185 13.3006C104.667 12.8314 104.043 12.5966 103.314 12.5961L98.9996 12.5972Z" fill="white"/>
<path d="M109 20.0872H107.274V21.6358H109V20.0872Z" fill="white"/>
<path d="M63.3573 26.2354L66.0264 31.4984H60.6785L63.3573 26.2354ZM62.3643 24.5449L56.0936 36.7918H57.9695L59.8773 33.0367H66.8504L68.7565 36.7918H70.6226L64.3605 24.5449H62.3643Z" fill="white"/>
<path d="M74.3707 27.7535C73.6419 27.7535 73.0199 27.988 72.505 28.4569C71.99 28.9258 71.7324 29.4911 71.7322 30.1528V36.7822H73.3479V30.4963C73.3436 30.3226 73.3771 30.1501 73.4462 29.9909C73.5152 29.8317 73.6181 29.6898 73.7476 29.5752C74.014 29.3321 74.3483 29.2106 74.7504 29.2109H78.4128V27.7535H74.3707Z" fill="white"/>
<path d="M82.4767 27.7536C81.7478 27.7536 81.124 27.9896 80.6051 28.4617C80.0863 28.9338 79.8272 29.5007 79.828 30.1624V36.7918H81.4433C81.4499 36.3329 81.4465 35.7137 81.4332 34.9342C81.4198 34.1547 81.4181 33.2979 81.4281 32.3637C81.4385 31.4291 81.4436 30.8099 81.4433 30.5062C81.4393 30.332 81.4736 30.159 81.5439 29.9998C81.6141 29.8406 81.7185 29.699 81.8496 29.5855C82.1206 29.3426 82.4567 29.2204 82.8578 29.2189H85.2856C85.6874 29.2189 86.0221 29.3337 86.2895 29.5631C86.4179 29.6695 86.5207 29.804 86.5899 29.9564C86.6592 30.1088 86.6931 30.2752 86.6892 30.4428V36.7889H88.3042V30.4461C88.3042 30.0949 88.4431 29.8031 88.7209 29.5704C88.9988 29.3378 89.3314 29.2214 89.719 29.2211H92.1573C92.5584 29.2211 92.8911 29.3433 93.1554 29.5877C93.4197 29.832 93.5517 30.1389 93.5514 30.5084V36.794H95.177V30.1624C95.177 29.5007 94.9195 28.9338 94.4045 28.4617C93.8896 27.9896 93.2676 27.7536 92.5385 27.7536H89.428C89.0465 27.7536 88.6601 27.8614 88.2689 28.0772C87.8777 28.293 87.622 28.5694 87.5016 28.9066C87.3739 28.5628 87.1196 28.2845 86.7386 28.0717C86.3576 27.8589 85.9762 27.7527 85.5944 27.7532L82.4767 27.7536Z" fill="white"/>
<path d="M96.4879 27.7634V34.3929C96.4879 35.0541 96.7472 35.6191 97.2658 36.088C97.7844 36.557 98.4114 36.7915 99.1468 36.7918H103.983V37.247C103.985 37.4153 103.954 37.5824 103.892 37.7387C103.83 37.895 103.738 38.0374 103.622 38.1578C103.507 38.2829 103.367 38.3819 103.211 38.4483C103.056 38.5146 102.888 38.5468 102.719 38.5427H97.3007V40H102.939C103.675 40 104.302 39.7656 104.82 39.2966C105.338 38.8277 105.598 38.2627 105.598 37.6014V27.7634H103.983V35.3242C103.18 35.3242 101.642 35.3275 99.3684 35.3341C99.0075 35.3341 98.7065 35.2076 98.4655 34.9547C98.3488 34.8354 98.2569 34.6938 98.1949 34.5383C98.133 34.3827 98.1023 34.2163 98.1047 34.0487V27.7634H96.4879Z" fill="white"/>
<path d="M35.046 24.4896L42.0555 36.7416H28.037L21.029 24.4896H35.046ZM15.7603 21.4266H22.7835L28.037 12.2472L21.0279 3.05176e-05L0 36.7416H14.0185L19.2708 27.5637L15.7603 21.4266Z" fill="white"/>
</g>
<defs>
<clipPath id="clip0_82:49">
<rect width="109" height="40" fill="white"/>
</clipPath>
</defs>
</svg>
