<svg width="41" height="38" viewBox="0 0 41 38" fill="none" xmlns="http://www.w3.org/2000/svg">
<path d="M17.4891 8.32812C13.7094 9.41719 10.7945 12.5242 9.92969 16.4H11.3391C12.1398 13.293 14.5102 10.7945 17.5211 9.76953V8.32812H17.4891ZM11.307 21.2367H9.92969C10.7945 25.1125 13.7414 28.2195 17.4891 29.3086V27.8672C14.4781 26.8742 12.1398 24.3758 11.307 21.2367ZM14.7984 19.3789H18.2258V18.2258H14.7984V19.3789ZM21.0766 13.1008H19.9555V15.9516H21.0766V13.1008ZM29.693 16.4H31.0703C30.2055 12.5242 27.2586 9.41719 23.5109 8.32812V9.76953C26.5219 10.7625 28.8602 13.2609 29.693 16.4ZM34.9461 18.2258C34.6578 10.6344 28.6039 4.54844 21.0445 4.26016V0H19.9234V4.26016C12.3961 4.54844 6.34219 10.6344 6.02187 18.2258H0V19.3789H6.05391C6.34219 26.9703 12.3961 33.0883 19.9555 33.3766V37.0281H21.0766V33.3766C28.6359 33.0883 34.6898 26.9703 34.9781 19.3789H41V18.2258H34.9461ZM21.0766 31.6789V24.5039H19.9555V31.7109C13.293 31.3906 8.00781 26.0414 7.71953 19.3789H14.2539V18.2258H7.71953C8.00781 11.5633 13.325 6.24609 19.9234 5.95781V12.5563H21.0445V5.95781C27.643 6.24609 32.9602 11.5953 33.2484 18.2258H26.2016V19.3789H33.2805C32.9922 26.0414 27.707 31.3906 21.0766 31.6789ZM23.5109 29.3086C27.2906 28.2195 30.2055 25.1125 31.0703 21.2367H29.6609C28.8602 24.3438 26.4898 26.8422 23.4789 27.8672V29.3086H23.5109ZM20.5 17.0727C19.5711 17.0727 18.8023 17.8414 18.8023 18.7703C18.8023 19.7313 19.5711 20.468 20.5 20.468C21.4289 20.468 22.1977 19.6992 22.1977 18.7703C22.1977 17.8414 21.4289 17.0727 20.5 17.0727ZM25.625 18.2258H22.7742V19.3789H25.625V18.2258ZM19.9234 23.9273H21.0766V21.0766H19.9234V23.9273Z" fill="#0A0A0A"/>
</svg>
